<svg width="35" height="40" viewBox="0 0 35 40" fill="none" xmlns="http://www.w3.org/2000/svg">
<path d="M34.6637 11.889C31.5072 12.9634 26.9789 14.8724 22.2597 18.3307C20.04 19.96 18.2109 21.616 14.0466 25.9534C10.7658 29.3762 6.39737 34.0866 1.38072 39.9734C1.42956 35.081 2.0866 27.6226 5.1987 19.1831C8.5239 10.1798 13.2609 3.79578 16.5594 0C17.0478 2.17092 17.8202 4.74584 19.0766 7.52053C19.8846 9.3141 20.7592 10.8857 21.6071 12.2353C19.1698 13.3762 15.8047 15.2897 12.4484 18.4462C9.74476 20.9856 7.88461 23.5516 6.63266 25.5805C8.6704 23.1032 12.1954 19.4539 17.5361 16.515C24.5816 12.6393 31.1787 11.9822 34.6682 11.889H34.6637Z" fill="url(#paint0_linear_122_1139)"/>
<path d="M28.7503 19.1298C27.1432 21.6426 26.0644 24.0133 25.3363 25.9756C26.1798 27.6981 27.05 29.7758 27.7781 32.1864C28.6526 35.0988 29.0966 37.7403 29.3186 39.9334C27.0677 38.0999 24.4129 36.1554 21.3408 34.2552C18.4329 32.4484 15.6626 31.0011 13.1499 29.8335C13.9712 28.7813 15.1343 27.3474 16.5994 25.7092C18.4151 23.6759 20.8613 20.9367 24.1155 18.3352C26.3885 16.5194 29.8513 14.1309 34.6549 12.0976L34.6238 12.1243C32.8702 13.7491 30.7303 16.0532 28.7592 19.1298H28.7503Z" fill="url(#paint1_linear_122_1139)"/>
<path d="M6.35294 14.0643C5.51831 14.0466 4.34628 13.9356 3.00999 13.505C1.69145 13.0788 0.683685 12.4927 0 12.0222C0.0355161 13.4828 0.195339 15.2408 0.617092 17.1897C1.15427 19.6448 1.94895 21.6737 2.69034 23.2142C3.09878 21.7136 3.63596 20.0532 4.35516 18.2819C4.99445 16.7103 5.67813 15.303 6.3485 14.0643H6.35294Z" fill="url(#paint2_linear_122_1139)"/>
<defs>
<linearGradient id="paint0_linear_122_1139" x1="-4.32798" y1="33.8316" x2="27.5032" y2="4.1867" gradientUnits="userSpaceOnUse">
<stop stop-color="#FFA727"/>
<stop offset="0.05" stop-color="#FE9F20"/>
<stop offset="0.2" stop-color="#FD8D0E"/>
<stop offset="0.36" stop-color="#FC8103"/>
<stop offset="0.53" stop-color="#FC7E00"/>
<stop offset="1" stop-color="#FF4800"/>
</linearGradient>
<linearGradient id="paint1_linear_122_1139" x1="19.0632" y1="36.174" x2="39.4215" y2="17.2162" gradientUnits="userSpaceOnUse">
<stop stop-color="#FFA727"/>
<stop offset="0.05" stop-color="#FE9F20"/>
<stop offset="0.2" stop-color="#FD8D0E"/>
<stop offset="0.36" stop-color="#FC8103"/>
<stop offset="0.53" stop-color="#FC7E00"/>
<stop offset="1" stop-color="#FF4800"/>
</linearGradient>
<linearGradient id="paint2_linear_122_1139" x1="2.99011" y1="11.7112" x2="4.1884" y2="23.0595" gradientUnits="userSpaceOnUse">
<stop stop-color="#FFA727"/>
<stop offset="0.05" stop-color="#FE9F20"/>
<stop offset="0.2" stop-color="#FD8D0E"/>
<stop offset="0.36" stop-color="#FC8103"/>
<stop offset="0.53" stop-color="#FC7E00"/>
<stop offset="1" stop-color="#FF4800"/>
</linearGradient>
</defs>
</svg>
