<svg width="128" height="128" viewBox="0 0 128 128" fill="none" xmlns="http://www.w3.org/2000/svg">
<path d="M120 38.0802C109.892 41.52 95.3917 47.6322 80.2798 58.7052C73.1716 63.9218 67.3145 69.2238 53.9797 83.1112C43.4738 94.0704 29.485 109.152 13.4207 128C13.577 112.336 15.681 88.4557 25.6467 61.4343C36.2804 32.6077 51.4492 12.1532 62.0119 0C63.5756 6.9508 66.0493 15.1951 70.0725 24.0791C72.6599 29.8217 75.4604 34.8535 78.1757 39.1747C70.371 42.8278 59.5951 48.9541 48.8476 59.0605C40.1899 67.1911 34.2333 75.407 30.2243 81.9029C36.7496 73.9713 48.0373 62.2872 65.1395 52.8773C87.7007 40.4682 108.826 38.3645 120 38.066V38.0802Z" fill="url(#paint0_linear_200_672)"/>
<path d="M101.064 61.2635C95.9173 69.3088 92.4628 76.8993 90.1313 83.182C92.8324 88.6972 95.6188 95.3495 97.9502 103.068C100.751 112.392 102.172 120.85 102.883 127.872C95.6756 122.001 87.1743 115.775 77.3367 109.692C68.025 103.907 59.1541 99.2726 51.1077 95.5343C53.7377 92.1655 57.4623 87.5743 62.1537 82.3292C67.9681 75.819 75.8013 67.0488 86.2218 58.7192C93.5006 52.9055 104.589 45.2582 119.971 38.748L119.872 38.8333C114.256 44.0358 107.404 51.413 101.092 61.2635H101.064Z" fill="url(#paint1_linear_200_672)"/>
<path d="M29.3435 45.0419C26.6708 44.985 22.9177 44.6297 18.6387 43.2509C14.4164 41.8863 11.1893 40.01 9 38.5033C9.11373 43.1798 9.62551 48.8087 10.9761 55.0488C12.6962 62.9093 15.241 69.4052 17.6151 74.3376C18.923 69.5332 20.6431 64.217 22.9462 58.5455C24.9933 53.5136 27.1826 49.0077 29.3293 45.0419H29.3435Z" fill="url(#paint2_linear_200_672)"/>
<defs>
<linearGradient id="paint0_linear_200_672" x1="-4.86227" y1="108.321" x2="97.0552" y2="13.3911" gradientUnits="userSpaceOnUse">
<stop stop-color="#FFA727"/>
<stop offset="0.05" stop-color="#FE9F20"/>
<stop offset="0.2" stop-color="#FD8D0E"/>
<stop offset="0.36" stop-color="#FC8103"/>
<stop offset="0.53" stop-color="#FC7E00"/>
<stop offset="1" stop-color="#FF4800"/>
</linearGradient>
<linearGradient id="paint1_linear_200_672" x1="70.0409" y1="115.821" x2="135.224" y2="55.1136" gradientUnits="userSpaceOnUse">
<stop stop-color="#FFA727"/>
<stop offset="0.05" stop-color="#FE9F20"/>
<stop offset="0.2" stop-color="#FD8D0E"/>
<stop offset="0.36" stop-color="#FC8103"/>
<stop offset="0.53" stop-color="#FC7E00"/>
<stop offset="1" stop-color="#FF4800"/>
</linearGradient>
<linearGradient id="paint2_linear_200_672" x1="18.5675" y1="37.4847" x2="22.4036" y2="73.8196" gradientUnits="userSpaceOnUse">
<stop stop-color="#FFA727"/>
<stop offset="0.05" stop-color="#FE9F20"/>
<stop offset="0.2" stop-color="#FD8D0E"/>
<stop offset="0.36" stop-color="#FC8103"/>
<stop offset="0.53" stop-color="#FC7E00"/>
<stop offset="1" stop-color="#FF4800"/>
</linearGradient>
</defs>
</svg>
