<svg width="256" height="256" viewBox="0 0 256 256" fill="none" xmlns="http://www.w3.org/2000/svg">
<path d="M240 76.1604C219.785 83.0401 190.783 95.2644 160.56 117.41C146.343 127.844 134.629 138.448 107.959 166.222C86.9477 188.141 58.9701 218.304 26.8413 256C27.1541 224.672 31.3621 176.911 51.2933 122.869C72.5609 65.2153 102.898 24.3065 124.024 0C127.151 13.9016 132.099 30.3902 140.145 48.1581C145.32 59.6433 150.921 69.707 156.351 78.3494C140.742 85.6555 119.19 97.9083 97.6952 118.121C80.3798 134.382 68.4666 150.814 60.4486 163.806C73.4991 147.943 96.0746 124.574 130.279 105.755C175.401 80.9364 217.652 76.7289 240 76.1319V76.1604Z" fill="url(#paint0_linear_200_673)"/>
<path d="M202.127 122.527C191.835 138.618 184.926 153.799 180.263 166.364C185.665 177.394 191.238 190.699 195.9 206.136C201.502 224.785 204.345 241.7 205.767 255.744C191.351 244.003 174.349 231.551 154.673 219.383C136.05 207.813 118.308 198.545 102.215 191.069C107.475 184.331 114.925 175.149 124.307 164.658C135.936 151.638 151.603 134.098 172.444 117.438C187.001 105.811 209.179 90.5164 239.943 77.4961L239.744 77.6667C228.513 88.0716 214.808 102.826 202.184 122.527H202.127Z" fill="url(#paint1_linear_200_673)"/>
<path d="M58.687 90.0838C53.3417 89.9701 45.8355 89.2593 37.2773 86.5018C28.8328 83.7726 22.3786 80.02 18 77.0066C18.2275 86.3596 19.251 97.6174 21.9521 110.098C25.3925 125.819 30.4819 138.81 35.2302 148.675C37.8459 139.066 41.2863 128.434 45.8924 117.091C49.9866 107.027 54.3652 98.0154 58.6585 90.0838H58.687Z" fill="url(#paint2_linear_200_673)"/>
<defs>
<linearGradient id="paint0_linear_200_673" x1="-9.72453" y1="216.643" x2="194.11" y2="26.7822" gradientUnits="userSpaceOnUse">
<stop stop-color="#FFA727"/>
<stop offset="0.05" stop-color="#FE9F20"/>
<stop offset="0.2" stop-color="#FD8D0E"/>
<stop offset="0.36" stop-color="#FC8103"/>
<stop offset="0.53" stop-color="#FC7E00"/>
<stop offset="1" stop-color="#FF4800"/>
</linearGradient>
<linearGradient id="paint1_linear_200_673" x1="140.082" y1="231.642" x2="270.449" y2="110.227" gradientUnits="userSpaceOnUse">
<stop stop-color="#FFA727"/>
<stop offset="0.05" stop-color="#FE9F20"/>
<stop offset="0.2" stop-color="#FD8D0E"/>
<stop offset="0.36" stop-color="#FC8103"/>
<stop offset="0.53" stop-color="#FC7E00"/>
<stop offset="1" stop-color="#FF4800"/>
</linearGradient>
<linearGradient id="paint2_linear_200_673" x1="37.135" y1="74.9693" x2="44.8072" y2="147.639" gradientUnits="userSpaceOnUse">
<stop stop-color="#FFA727"/>
<stop offset="0.05" stop-color="#FE9F20"/>
<stop offset="0.2" stop-color="#FD8D0E"/>
<stop offset="0.36" stop-color="#FC8103"/>
<stop offset="0.53" stop-color="#FC7E00"/>
<stop offset="1" stop-color="#FF4800"/>
</linearGradient>
</defs>
</svg>
