<svg xmlns="http://www.w3.org/2000/svg" width="56" height="57" viewBox="0 0 56 57"><path fill="#F7931E" d="M34.3 38.875c7 0 12.775-5.775 12.775-12.775S41.3 13.325 34.3 13.325 21.525 19.1 21.525 26.1s5.6 12.775 12.775 12.775Z"></path><path fill="#0068C8" d="M25.725 21.2c.875-1.05 1.225-2.275 1.225-3.675 0-2.8-1.925-5.25-4.55-5.775.175-.7.35-1.4.35-2.1 0-4.2-3.5-7.7-7.875-7.7-4.2 0-7.7 3.5-7.7 7.7 0 .7.175 1.225.175 1.925-2.45.7-4.375 3.15-4.375 5.95 0 1.4.525 2.625 1.225 3.675-1.4 1.4-2.8 3.325-2.45 5.6.35 2.1 9.275 23.45 9.275 23.45h7.7S27.65 28.9 28 26.8c.525-2.275-.875-4.2-2.275-5.6ZM42.35 38.175c.35 1.225.525 2.45.7 3.5h11.2L49.7 27.85l-9.1 6.825c.7 1.05 1.225 2.275 1.75 3.5Z"></path><path fill="#1D1D1B" d="M39.043 7.525a.75.75 0 0 1 .532.917l-2.063 7.778c.154.02.309.03.463.03.765 0 1.21-.024 1.509-.224a.75.75 0 1 1 .832 1.248c-.718.479-1.623.477-2.256.476h-.085c-.453 0-.903-.062-1.34-.177a.749.749 0 0 1-.542-.174 5.734 5.734 0 0 1-2.37-1.669.75.75 0 1 1 1.153-.96c.328.394.745.729 1.209.98l2.04-7.692a.75.75 0 0 1 .918-.533Z"></path><path fill="#1D1D1B" fill-rule="evenodd" d="M14.875 9.95a.75.75 0 0 1 .75.75v11.673l5.514-6.22a.75.75 0 0 1 1.122.995l-6.467 7.296a.747.747 0 0 1-.169.387v8.426l5.52-6.086a.75.75 0 1 1 1.11 1.008l-6.63 7.31v3.086l13.919-8.22a.76.76 0 0 1 .046-.026c2.541-1.27 5.391-.955 7.841.459 2.446 1.41 4.525 3.926 5.629 7.144l.006.018c1.011 3.219.838 6.469-.29 9.056-1.132 2.593-3.243 4.545-6.073 5.033a.751.751 0 0 1-.05.007l-30.095 3.15h-.002c-1.037.114-2.058-.292-2.886-.944a6.127 6.127 0 0 1-1.925-2.696c-.802-2.208-.035-4.703 1.708-5.792l.016-.01 10.656-6.293v-3.977l-6.462-7.312a.75.75 0 1 1 1.124-.994l5.338 6.041v-8.781l-6.462-7.29a.75.75 0 1 1 1.123-.995l5.339 6.023V10.7a.75.75 0 0 1 .75-.75Zm-.75 39.775v-8.522L4.24 47.04c-1.052.664-1.68 2.364-1.085 4.003a4.627 4.627 0 0 0 1.444 2.03c.616.485 1.256.69 1.793.63h.005l2.13-.223-1.368-4.409a.75.75 0 1 1 1.433-.444l1.456 4.694 16.628-1.74-.072-.225c-.199-.628-.467-1.47-.74-2.322a343.23 343.23 0 0 0-.772-2.384 67.2 67.2 0 0 0-.278-.83 13.5 13.5 0 0 0-.1-.285l-.01-.026a.75.75 0 0 1 1.342-.67c.05.1.121.303.186.492.076.22.174.512.285.85.222.675.502 1.542.776 2.395.273.854.541 1.697.741 2.327l.165.518 8.273-.865c2.233-.394 3.963-1.94 4.928-4.15.97-2.224 1.148-5.095.238-7.998-.998-2.902-2.854-5.11-4.956-6.322-2.035-1.174-4.27-1.407-6.233-.506l.056.173c.118.367.277.87.462 1.461.37 1.183.846 2.727 1.316 4.259a2613.074 2613.074 0 0 1 1.701 5.563l.159.52a.75.75 0 0 1-1.435.436l-.158-.519a3038.547 3038.547 0 0 0-1.701-5.56c-.47-1.531-.945-3.072-1.314-4.251-.163-.521-.304-.97-.415-1.316l-10.467 6.181.054.154c.076.22.173.512.284.85.223.675.503 1.542.776 2.395a919.92 919.92 0 0 1 .982 3.085l.09.287a.75.75 0 1 1-1.43.452l-.09-.286-.24-.758c-.2-.628-.467-1.47-.74-2.322a343.23 343.23 0 0 0-.772-2.384 78.61 78.61 0 0 0-.232-.694l-1.71 1.01v9.408a.75.75 0 1 1-1.5 0Z" clip-rule="evenodd"></path></svg>