<svg xmlns="http://www.w3.org/2000/svg" width="57" height="57" viewBox="0 0 57 57"><path fill="#0068C8" d="M39 23.125H6.975V48.85H39V23.125Z"></path><path fill="#F7931E" d="M41.274 27.85a12.92 12.92 0 0 0 12.95-12.95 12.92 12.92 0 0 0-12.95-12.95 12.92 12.92 0 0 0-12.95 12.95c0 7 5.775 12.95 12.95 12.95Z"></path><path fill="#1D1D1B" d="M48.587 9.302a.75.75 0 0 0-1.324-.705l-6.504 12.215-4.418-8.532a.75.75 0 0 0-1.332.69l5.075 9.8a.75.75 0 0 0 1.328.008l7.175-13.476Z"></path><path fill="#1D1D1B" fill-rule="evenodd" d="M39.175 29.725a.75.75 0 0 0 0 1.5h6.546l7.664 14.648.01.016c.574 1.035-.22 2.211-1.27 2.211h-1.84c-.709-1.948-2.531-3.325-4.636-3.325s-3.927 1.377-4.635 3.325H38.3a.75.75 0 0 0 0 1.5h2.408c-.006.1-.009.2-.009.3 0 2.844 2.241 5.125 4.95 5.125 2.71 0 4.95-2.28 4.95-5.125 0-.1-.003-.2-.008-.3h1.534c2.097 0 3.751-2.318 2.585-4.43l-7.87-15.043a.75.75 0 0 0-.665-.402h-7Zm6.474 16.55c1.248 0 2.389.72 2.995 1.825h-5.99c.606-1.104 1.748-1.825 2.995-1.825ZM42.2 49.9c0-.101.004-.201.012-.3h6.877c.007.099.011.199.011.3 0 2.056-1.609 3.625-3.45 3.625-1.84 0-3.45-1.57-3.45-3.625ZM14.85 44.775c-2.71 0-4.95 2.28-4.95 5.125 0 2.844 2.24 5.125 4.95 5.125 2.708 0 4.95-2.28 4.95-5.125 0-2.844-2.242-5.125-4.95-5.125ZM11.4 49.9c0-2.056 1.608-3.625 3.45-3.625 1.84 0 3.45 1.57 3.45 3.625 0 2.056-1.61 3.625-3.45 3.625-1.842 0-3.45-1.57-3.45-3.625Z" clip-rule="evenodd"></path><path fill="#1D1D1B" d="M5.225 43.025a.75.75 0 0 0 0 1.5H18.35a.75.75 0 0 0 0-1.5H5.225ZM1.85 39.75A.75.75 0 0 1 2.6 39h13.125a.75.75 0 0 1 0 1.5H2.6a.75.75 0 0 1-.75-.75Z"></path></svg>