<svg xmlns="http://www.w3.org/2000/svg" width="56" height="57" viewBox="0 0 56 57"><path fill="#0068C8" d="M50.4 39.575c-3.675 7.525-16.975 8.4-16.975 8.4s-5.25-10.15-.7-17.15c5.25-8.225 22.05-9.1 22.05-9.1s-.7 10.5-4.375 17.85Z"></path><path fill="#1D1D1B" d="M18.375 11.525a.75.75 0 0 0 0 1.5H38.15a.75.75 0 0 0 0-1.5H18.375ZM17.625 20.675a.75.75 0 0 1 .75-.75H38.15a.75.75 0 0 1 0 1.5H18.375a.75.75 0 0 1-.75-.75Z"></path><path fill="#1D1D1B" fill-rule="evenodd" d="M10.8 1.95a.75.75 0 0 1 .75-.75H44.8a.75.75 0 0 1 .75.75v27.046a94.281 94.281 0 0 1 1.46-1.613l.033-.035.012-.013a.75.75 0 0 1 1.09 1.03l-.01.01-.03.034a46.127 46.127 0 0 0-.597.648 100.61 100.61 0 0 0-1.958 2.226V41.85a.75.75 0 0 1-.75.75h-7.617a46.43 46.43 0 0 0-1.687 3.014c-1.418 2.788-2.33 5.433-2.371 7.625a.75.75 0 0 1-1.5-.028c.047-2.533 1.082-5.422 2.534-8.278.396-.777.825-1.557 1.278-2.333h-18l5.243 8.118a.75.75 0 0 1-.229 1.04l-5.25 3.326a.75.75 0 0 1-1.031-.227l-4.27-6.612-4.27 6.612a.75.75 0 0 1-1.031.227l-5.25-3.325a.75.75 0 0 1-.229-1.04l5.425-8.4a.75.75 0 0 1 1.031-.228L11.9 44.83l3.52-2.23h-3.87a.75.75 0 0 1-.75-.75V1.95Zm33.25.75V30.73a107.168 107.168 0 0 0-4.602 5.82 76.063 76.063 0 0 0-3.102 4.549H12.3V2.7h31.75Zm0 38.4h-5.925a77.304 77.304 0 0 1 2.533-3.663 102.435 102.435 0 0 1 3.392-4.363V41.1Zm-30.995 5.357-.262.406 4.234 6.556 3.982-2.523-4.61-7.14-3.26 2.065a.749.749 0 0 1-.084.636Zm-5.653-2.7 3.259 2.064a.749.749 0 0 0 .084.636l.262.406-4.234 6.556-3.982-2.523 4.61-7.14Z" clip-rule="evenodd"></path><path fill="#F7931E" d="M12.425 50.6c5.25 0 9.45-4.2 9.45-9.45 0-5.25-4.2-9.45-9.45-9.45a9.41 9.41 0 0 0-9.45 9.45c0 5.25 4.2 9.45 9.45 9.45Z"></path><path fill="#1D1D1B" fill-rule="evenodd" d="M6.25 41.15c0-3.39 2.786-6.175 6.175-6.175 3.39 0 6.175 2.786 6.175 6.175 0 3.39-2.786 6.175-6.175 6.175-3.39 0-6.175-2.786-6.175-6.175Zm6.175-4.675c-2.56 0-4.675 2.114-4.675 4.675 0 2.56 2.114 4.675 4.675 4.675 2.56 0 4.675-2.114 4.675-4.675 0-2.56-2.114-4.675-4.675-4.675Z" clip-rule="evenodd"></path></svg>