<svg xmlns="http://www.w3.org/2000/svg" width="57" height="57" viewBox="0 0 57 57"><path fill="#0068C8" d="m56.5 29.982-8.654 6.236 3.309 10.055-10.691-.128-3.31 10.055-8.654-6.236-8.654 6.236-3.31-10.055-10.69.128 3.309-10.055L.5 29.982l8.655-6.11-3.31-10.054h10.691l3.31-10.054L28.5 9.873l8.654-6.237 3.31 10.055h10.69l-3.309 10.054 8.655 6.237Z"></path><path fill="#F7931E" d="m38.937 45.255-13.873-.764L19.082 32.4 35.627 7.71l19.855 12.854-16.545 24.69Z"></path><path fill="#1D1D1B" d="M54.506 4.358c-.268-1.88-1.615-3.53-3.543-3.816-.953-.266-1.892-.13-2.68.13-.776.131-1.58.394-2.138.81-.821.55-1.39 1.364-1.815 2.247-.424.88-.715 1.851-.969 2.738-.26.655-.392 1.184-.52 1.956a.299.299 0 0 0-.003.077c-.292 1.13-.566 2.243-.815 3.36l.512.33c.261-1.184.55-2.364.861-3.567a.299.299 0 0 0 .036-.101l.02-.112c.14-.538.283-1.08.431-1.63a10.995 10.995 0 0 1 .051-.134c.255-.892.535-1.823.936-2.657.401-.832.912-1.544 1.615-2.012a.342.342 0 0 0 .013-.01c.455-.34 1.165-.584 1.906-.707a.296.296 0 0 0 .045-.012c.73-.243 1.555-.356 2.369-.123a.298.298 0 0 0 .04.008c1.624.232 2.814 1.632 3.054 3.308.238 1.786-.715 3.61-1.858 5.261-2.261 3.265-5.535 6.039-9.073 8.187a.3.3 0 0 0 .311.513c3.589-2.179 6.933-5.006 9.255-8.359 1.147-1.657 2.23-3.65 1.96-5.683v-.002Z"></path><path fill="#1D1D1B" fill-rule="evenodd" d="M34.481 26.164c-.763 0-1.4-.255-2.036-.891-.764-.764-1.018-1.4-.764-2.164.128-.764.51-1.527 1.273-2.29.764-.637 1.655-1.019 2.418-1.019.51 0 .891 0 1.273.255.04.02.084.04.13.061.242.113.547.254.76.575.51.636.892 1.4.765 2.164-.128.763-.51 1.527-1.273 2.29-.764.637-1.655 1.019-2.418 1.019h-.128Zm1.988-5.12c-.365-.194-.667-.353-.97-.353h-.127c-.509 0-1.018.382-1.654.89-.51.637-.891 1.146-1.018 1.655-.128.637 0 1.146.381 1.528.128.127.255.254.51.381.254.128.509.255.89.128.51 0 1.019-.382 1.655-.891.509-.637.89-1.146 1.018-1.655.127-.636 0-1.145-.382-1.527a15.166 15.166 0 0 1-.303-.157Z" clip-rule="evenodd"></path><path fill="#1D1D1B" d="M43.009 26.673 27.48 29.09l.891 1.018L43.9 27.691l-.891-1.018Z"></path><path fill="#1D1D1B" fill-rule="evenodd" d="M38.045 31c-.254-.127-.382-.127-.509-.127a3.104 3.104 0 0 0-1.527 0c-.124.062-.255.123-.39.187-.42.198-.88.415-1.265.704-.509.509-.89 1.018-1.145 1.527-.255.509-.255 1.018-.127 1.527.127.51.382 1.018.763 1.4l.128.127c.636.637 1.272.891 2.036.891s1.654-.381 2.418-1.018c.764-.763 1.146-1.527 1.273-2.29.127-.764-.255-1.528-.764-2.164-.156-.235-.36-.373-.554-.505-.122-.082-.239-.16-.337-.259Zm-2.927 5.09c-.064-.063-.16-.126-.255-.19s-.19-.127-.254-.19c-.382-.383-.51-.892-.382-1.528.127-.51.382-1.018 1.018-1.655.637-.509 1.146-.89 1.655-.89h.254c.51 0 .764.127 1.146.508.382.382.509.891.382 1.528-.128.509-.51 1.018-1.019 1.527-.509.51-1.145.89-1.654.89a1.087 1.087 0 0 1-.891 0Z" clip-rule="evenodd"></path></svg>