<svg xmlns="http://www.w3.org/2000/svg" width="32" height="32" viewBox="0 0 32 32"><path fill="#EAEAEA" d="m22.364 7.4-.527.8a.372.372 0 0 1-.317.169.37.37 0 0 1-.316-.57l.464-.695a12.917 12.917 0 0 0-4.532-.99v.315c0 .211-.169.359-.38.359-.21 0-.38-.169-.38-.359v-.316c-1.58 0-3.119.316-4.531.886l.527.78a.37.37 0 0 1-.317.569.4.4 0 0 1-.316-.169l-.59-.906a12.88 12.88 0 0 0-4.3 3.267l.21 1.012h18.446a.9.9 0 0 1 .738.358c.19.232.253.527.19.801l-1.645 7.969a.953.953 0 0 1-.949.759H9.083l.422 2.108h14.229c.21 0 .38.168.38.38 0 .21-.17.379-.38.379H9.694a.97.97 0 0 1-.948-.76L6.237 11.32a12.93 12.93 0 0 0-2.55 7.715C3.687 26.203 9.484 32 16.65 32c7.167 0 12.964-5.797 12.964-12.965 0-5.1-2.95-9.528-7.251-11.636Zm-9.57 22.07a1.903 1.903 0 0 1-1.898-1.897 1.89 1.89 0 0 1 1.897-1.897c1.033 0 1.898.843 1.898 1.897a1.89 1.89 0 0 1-1.898 1.897Zm7.377 0a1.903 1.903 0 0 1-1.897-1.897 1.89 1.89 0 0 1 1.897-1.897 1.89 1.89 0 0 1 1.898 1.897 1.903 1.903 0 0 1-1.898 1.897Z"/><path fill="#000" d="M12.793 25.697a1.903 1.903 0 0 0-1.897 1.897 1.89 1.89 0 0 0 1.897 1.897 1.903 1.903 0 0 0 1.897-1.897 1.89 1.89 0 0 0-1.897-1.897Zm0 3.036a1.134 1.134 0 0 1-1.138-1.139c0-.632.506-1.138 1.138-1.138.632 0 1.138.506 1.138 1.138 0 .633-.506 1.139-1.138 1.139Zm7.378-3.036a1.903 1.903 0 0 0-1.897 1.897 1.89 1.89 0 0 0 1.897 1.897 1.89 1.89 0 0 0 1.897-1.897 1.903 1.903 0 0 0-1.897-1.897Zm0 3.036a1.134 1.134 0 0 1-1.138-1.139c0-.632.506-1.138 1.138-1.138.632 0 1.138.506 1.138 1.138 0 .633-.506 1.139-1.138 1.139Zm6.071-16.78a.96.96 0 0 0-.738-.359H7.06l-.4-1.96a.955.955 0 0 0-.57-.696L3.518 7.821C3.475 7.8 3.412 7.8 3.37 7.8a.361.361 0 0 0-.337.232c-.085.19 0 .421.19.484L5.9 9.676l2.867 13.892a.953.953 0 0 0 .948.759h14.06c.212 0 .38-.169.38-.38 0-.21-.168-.38-.38-.38H9.526l-.421-2.107H23.86a.97.97 0 0 0 .949-.76l1.644-7.967a.95.95 0 0 0-.21-.78Zm-2.213 8.769H8.935l-1.728-8.369h18.55l-1.728 8.369Zm.906-17.18L21.836 8.2a.372.372 0 0 1-.316.169.37.37 0 0 1-.316-.57l3.099-4.658a.37.37 0 0 1 .506-.105c.19.105.232.337.126.506ZM12.371 7.8a.37.37 0 0 1-.316.569.4.4 0 0 1-.316-.169L8.64 3.542a.37.37 0 0 1 .105-.506.37.37 0 0 1 .506.105l3.12 4.659ZM17.157.38v6.028c0 .211-.17.359-.38.359s-.38-.169-.38-.359V.38c0-.21.17-.379.38-.379s.38.169.38.38Z"/><path fill="#000" d="M15.053 18.825a.276.276 0 0 1-.178-.063.208.208 0 0 1-.008-.32 2.626 2.626 0 0 1 1.787-.671c.604 0 1.186.194 1.638.545a.208.208 0 0 1 .023.32.283.283 0 0 1-.364.02 2.117 2.117 0 0 0-1.297-.432c-.539 0-1.042.189-1.415.53a.274.274 0 0 1-.186.07ZM12.898 16.443a.843.843 0 1 0 0-1.687.843.843 0 0 0 0 1.687ZM20.066 16.443a.843.843 0 1 0 0-1.687.843.843 0 0 0 0 1.687Z"/></svg>