<svg xmlns="http://www.w3.org/2000/svg" width="692" height="722" viewBox="0 0 692 722"><path fill="#EAEAEA" d="M145.65 149h83.559c28.063 0 52.211 19.849 57.653 47.39l90.002 455.414c7.183 36.345-20.62 70.196-57.653 70.196H58.788c-36.874 0-64.64-33.577-57.728-69.813l86.862-455.413C93.209 169.052 117.44 149 145.65 149Z"/><path fill="#000" d="M179.877 405.691c0 16.881-13.673 30.566-30.54 30.566-16.868 0-30.541-13.685-30.541-30.566s13.673-30.566 30.541-30.566c16.867 0 30.54 13.685 30.54 30.566ZM302.04 405.691c0 16.881-13.674 30.566-30.541 30.566s-30.541-13.685-30.541-30.566 13.674-30.566 30.541-30.566 30.541 13.685 30.541 30.566ZM159.24 530.929c3.035-7.719 17.894-27.52 51.395-27.52 33.478 0 48.009 19.766 50.918 27.41 2.092 5.497 8.241 8.257 13.734 6.163 5.493-2.094 8.25-8.248 6.158-13.746-5.786-15.203-27.772-41.131-70.81-41.131-43.013 0-65.252 25.893-71.202 41.022-2.153 5.474.536 11.658 6.006 13.812 5.469 2.155 11.648-.536 13.801-6.01ZM114.632 674.299h93.473v-5.557h-93.473v5.557ZM586.16 691.897H41.982v-5.557H586.16v5.557Z"/><path fill="#000" fill-rule="evenodd" d="M209.89 75.156c-12.893 23.313-21.615 49.26-27.133 73.505h-35.944a60.414 60.414 0 0 0-24.234 5.052 58.928 58.928 0 0 0-23.628 18.378 60.52 60.52 0 0 0-11.682 25.867L1.093 649.961a61.261 61.261 0 0 0-1.086 12.441C-.5 694.492 25.412 722 58.787 722h510.424c36.765 0 64.433-33.363 57.804-69.407a62.236 62.236 0 0 0-.521-3.028l-18.299-92.633 62.204-62.265c7.2-7.208 12.601-15.535 16.201-24.423 6.792-16.768 7.177-35.529 1.154-52.524a73.33 73.33 0 0 0-7.905-15.885 74.146 74.146 0 0 0-9.45-11.583l-83.444-83.531c-9.198-9.207-20.22-15.474-31.902-18.801l-17.85-90.358a61.2 61.2 0 0 0-1.549-6.148c-5.777-19.969-21.619-35.165-41.236-40.418a60.525 60.525 0 0 0-16.682-2.335H454.9c-3.252-23.613-9.361-49.076-19.833-72.137C416.019 34.576 382.167 0 324.714 0c-55.428 0-91.925 33.75-114.824 75.156Zm377.065 503.036 14.365-14.379 17.696 89.542C625.222 684.758 601.199 714 569.211 714H58.788c-31.851 0-55.841-29.005-49.87-60.314L95.78 198.273C100.348 174.321 121.282 157 145.65 157h35.319c-2.605 12.939-4.295 25.227-5.227 36.167-9.288 2.095-16.225 10.402-16.225 20.33 0 11.51 9.323 20.84 20.823 20.84s20.823-9.33 20.823-20.84c0-9.896-6.892-18.181-16.134-20.31.964-10.957 2.708-23.265 5.386-36.187h256.212c1.506 13.04 2.137 25.364 2.166 36.159-9.306 2.081-16.261 10.397-16.261 20.338 0 11.51 9.323 20.84 20.823 20.84s20.823-9.33 20.823-20.84c0-9.895-6.89-18.179-16.131-20.309-.027-10.796-.638-23.115-2.105-36.188h23.267c24.24 0 45.103 17.146 49.805 40.941l17.406 88.072c-14.082-2.236-28.687-.378-41.901 5.574a73.58 73.58 0 0 0-21.868 15.134l-83.439 83.525c-28.807 28.837-28.806 75.584 0 104.421l83.439 83.525c28.806 28.831 75.503 28.831 104.304 0ZM391.536 415.097a69.955 69.955 0 0 1 14.942-22.2l79.088-79.354c27.305-27.391 71.567-27.391 98.866 0l79.094 79.359c13.231 13.279 20.05 30.555 20.455 47.953.015.644.022 1.287.018 1.931-.07 17.858-6.895 35.693-20.473 49.317l-79.094 79.354c-27.299 27.391-71.561 27.391-98.866 0l-79.088-79.354a69.947 69.947 0 0 1-15.421-23.362c-7.422-17.081-7.263-36.671.479-53.644ZM217.987 79.641c-12.052 21.794-20.359 46.101-25.732 69.02h253.3c-3.193-22.518-9.056-46.597-18.913-68.304-18.086-39.83-49.249-71.095-101.928-71.095-50.867 0-84.784 30.7-106.727 70.38Z" clip-rule="evenodd"/><path fill="#EAEAEA" d="M635.851 436.821c-1.056 14.772-7.677 28.633-18.579 38.896l-80.886 79.11a.614.614 0 0 1-.856 0l-80.8-79.11c-10.901-10.263-17.522-24.123-18.58-38.895-1.058-14.771 3.522-29.401 12.853-41.053a58.803 58.803 0 0 1 18.963-14.692 59.968 59.968 0 0 1 23.39-6.005 60.108 60.108 0 0 1 23.885 3.691c7.616 2.832 14.944 9.65 20.759 15.237 5.815-5.587 13.135-12.405 20.75-15.237a60.11 60.11 0 0 1 23.885-3.691 59.96 59.96 0 0 1 23.39 6.005 58.792 58.792 0 0 1 18.963 14.692c9.335 11.65 13.919 26.28 12.863 41.052Z"/><path fill="#000" d="M617.272 475.717a60.034 60.034 0 0 0 7.27-8.216l-5.194-3.946a53.519 53.519 0 0 1-6.477 7.319l-.044.042-.046.044-6.74 6.593 4.491 4.756 6.74-6.592ZM592.56 490.738l4.491 4.756-13.481 13.185-4.491-4.756 13.481-13.185ZM565.597 517.108l4.491 4.757-13.481 13.185-4.491-4.757 13.481-13.185Z"/><path fill="#000" fill-rule="evenodd" d="m538.635 543.478 4.491 4.757-6.741 6.592a.543.543 0 0 1-.092.074l-.321-.512-.011-.011.114.611a.645.645 0 0 1-.234 0l.113-.611-.011.013-.32.51a.592.592 0 0 1-.093-.074l-6.733-6.592 4.493-4.755 2.67 2.614 2.675-2.616Zm-2.675 10.894h.001l.008.013-.008-.009-.001-.004Zm-.013.013.008-.014v.005l-.008.009Z" clip-rule="evenodd"/><path fill="#000" d="m519.824 530.295-4.494 4.755-13.466-13.185 4.493-4.755 13.467 13.185ZM492.89 503.925l-4.493 4.754-13.467-13.185 4.493-4.754 13.467 13.185ZM465.957 477.555l-4.494 4.754-6.733-6.592a60.22 60.22 0 0 1-7.27-8.215l5.194-3.947a53.653 53.653 0 0 0 6.569 7.408l6.734 6.592ZM444.23 445.994l-6.255 1.726a58.556 58.556 0 0 1-1.575-21.912l6.436.784a51.835 51.835 0 0 0 1.394 19.402ZM448.659 408.07l-5.692-3.155a59.639 59.639 0 0 1 6.036-9.146 58.2 58.2 0 0 1 4.159-4.398l4.43 4.815a51.617 51.617 0 0 0-3.626 3.828 52.962 52.962 0 0 0-5.307 8.056ZM466.075 389.622l-3.378-5.63a59.64 59.64 0 0 1 10.865-5.304l2.203 6.205a53.207 53.207 0 0 0-9.69 4.729ZM486.268 382.2l-.951-6.526a60.256 60.256 0 0 1 12.116-.592l-.331 6.588a53.816 53.816 0 0 0-10.834.53ZM507.832 383.326l1.604-6.392c1.962.51 3.9 1.12 5.805 1.829 1.933.719 3.848 1.637 5.724 2.699l-3.15 5.765c-1.632-.923-3.236-1.687-4.798-2.268a53.251 53.251 0 0 0-5.185-1.633ZM527.128 393.897l4.159-5.059a106.1 106.1 0 0 1 4.713 4.275 107.854 107.854 0 0 1 4.711-4.275l4.16 5.059a100.754 100.754 0 0 0-4.422 4.013 6.398 6.398 0 0 1-8.898 0 100.215 100.215 0 0 0-4.423-4.013ZM554.18 387.227l-3.151-5.765c1.875-1.062 3.788-1.98 5.721-2.699a59.815 59.815 0 0 1 5.806-1.829l1.604 6.392c-1.753.455-3.484 1-5.185 1.633-1.562.581-3.165 1.344-4.795 2.268ZM574.889 381.67l-.331-6.588a60.083 60.083 0 0 1 12.117.592l-.951 6.526a53.74 53.74 0 0 0-10.835-.53ZM596.226 384.893l2.203-6.205a59.597 59.597 0 0 1 10.865 5.304l-3.377 5.63a53.112 53.112 0 0 0-9.691-4.729ZM627.771 445.993l6.256 1.725a58.582 58.582 0 0 0 1.572-21.912l-6.436.785a51.834 51.834 0 0 1-1.392 19.402ZM623.336 408.07l5.692-3.156a59.607 59.607 0 0 0-6.04-9.145 58.188 58.188 0 0 0-4.158-4.398l-4.431 4.815a51.669 51.669 0 0 1 3.628 3.829 53.041 53.041 0 0 1 5.309 8.055Z"/></svg>
