<svg xmlns="http://www.w3.org/2000/svg" width="278" height="54" viewBox="0 0 278 54" fill="none"><rect width="54" height="54" fill="#0068C8" rx="12"/><path fill="#fff" d="M40.907 16.187c.163 2.525.325 5.051-1.503 6.617-1.435 1.23-3.216 1.3-5.78 1.402-1.181.047-2.529.1-4.085.277 0-.689-.028-1.44-.057-2.212-.113-2.995-.237-6.316 1.218-7.578 2.083-1.807 4.316-1.74 6.913-1.662 1.02.03 2.096.063 3.242-.016-.087 1.007-.017 2.09.052 3.172ZM31.69 39.322c1.827-1.567 1.665-4.092 1.503-6.618-.07-1.082-.14-2.165-.053-3.172-1.145.079-2.221.047-3.242.016-2.597-.078-4.83-.145-6.913 1.662-1.455 1.262-1.33 4.583-1.218 7.578.03.773.057 1.524.057 2.212 1.557-.176 2.904-.23 4.086-.277 2.563-.101 4.345-.172 5.78-1.401ZM21.06 24.978c.113 1.723.227 3.445-1.055 4.514-1.007.838-2.257.886-4.055.956-.829.031-1.774.068-2.866.188 0-.47-.02-.981-.04-1.508-.08-2.043-.167-4.308.854-5.169 1.462-1.233 3.028-1.187 4.85-1.134.716.021 1.471.043 2.275-.01-.061.686-.013 1.425.036 2.163Z"/><path fill="#0068C8" d="M272.695 43.26c-1.318 0-2.43-.444-3.336-1.335-.906-.89-1.359-2.017-1.359-3.38 0-1.42.453-2.547 1.359-3.382.906-.862 2.018-1.293 3.336-1.293s2.43.43 3.336 1.293c.906.835 1.359 1.962 1.359 3.381 0 1.364-.453 2.49-1.359 3.381-.906.89-2.018 1.336-3.336 1.336Z"/><path fill="#000" d="M64 43.353V10.688h15.194c3.904 0 6.818.793 8.742 2.38 1.924 1.555 2.886 3.608 2.886 6.16 0 1.68-.41 3.157-1.23 4.432-.793 1.245-1.924 2.24-3.396 2.987-1.443.716-3.168 1.073-5.177 1.073l.848-2.24c2.094 0 3.92.358 5.475 1.074 1.556.684 2.759 1.695 3.608 3.033.877 1.306 1.315 2.909 1.315 4.806 0 2.831-1.046 5.04-3.14 6.627-2.066 1.555-5.093 2.333-9.082 2.333H64Zm8.318-6.673h7.045c1.443 0 2.533-.264 3.268-.793.764-.56 1.146-1.4 1.146-2.52s-.382-1.945-1.146-2.473c-.735-.56-1.825-.84-3.268-.84h-7.639V23.66h6.366c1.415 0 2.476-.265 3.183-.794.708-.529 1.061-1.322 1.061-2.38 0-1.057-.353-1.835-1.06-2.333-.708-.529-1.77-.793-3.184-.793h-5.772V36.68ZM96.236 43.966v-33.4h8.063v33.4h-8.063ZM121.084 43.773c-2.518 0-4.754-.56-6.706-1.68a12.358 12.358 0 0 1-4.626-4.62c-1.103-1.99-1.655-4.262-1.655-6.813 0-2.55.552-4.806 1.655-6.766 1.132-1.96 2.674-3.484 4.626-4.573 1.952-1.12 4.188-1.68 6.706-1.68 2.518 0 4.753.56 6.705 1.68a11.637 11.637 0 0 1 4.626 4.573c1.104 1.96 1.655 4.215 1.655 6.766s-.551 4.822-1.655 6.813c-1.103 1.96-2.645 3.5-4.626 4.62-1.952 1.12-4.187 1.68-6.705 1.68Zm0-7.046c.933 0 1.754-.234 2.461-.7.736-.467 1.316-1.151 1.74-2.054.425-.933.637-2.037.637-3.313 0-1.275-.212-2.349-.637-3.22-.424-.902-1.004-1.586-1.74-2.053-.707-.467-1.528-.7-2.461-.7a4.5 4.5 0 0 0-2.462.7c-.707.467-1.287 1.151-1.74 2.053-.424.871-.637 1.945-.637 3.22 0 1.276.213 2.38.637 3.313.453.903 1.033 1.587 1.74 2.054.736.466 1.556.7 2.462.7ZM149.053 52.826c-2.207 0-4.315-.28-6.324-.84-1.981-.56-3.678-1.384-5.093-2.473l2.928-6.207c.962.84 2.151 1.494 3.565 1.96 1.443.498 2.844.747 4.202.747 2.179 0 3.749-.529 4.711-1.587.962-1.026 1.443-2.535 1.443-4.526v-2.987l.424-7.093-.042-7.14v-4.62h7.682v20.673c0 4.791-1.175 8.338-3.523 10.64-2.348 2.302-5.673 3.453-9.973 3.453Zm-1.401-10.78c-2.037 0-3.919-.497-5.645-1.493-1.697-1.026-3.069-2.442-4.116-4.246-1.019-1.836-1.528-3.998-1.528-6.487s.509-4.635 1.528-6.44c1.047-1.835 2.419-3.25 4.116-4.246 1.726-.996 3.608-1.493 5.645-1.493 1.952 0 3.622.435 5.008 1.306 1.386.84 2.433 2.162 3.141 3.967.735 1.804 1.103 4.106 1.103 6.906s-.368 5.102-1.103 6.907c-.708 1.804-1.755 3.142-3.141 4.013-1.386.87-3.056 1.306-5.008 1.306Zm1.91-7.046c.962 0 1.811-.218 2.546-.653a4.582 4.582 0 0 0 1.783-1.82c.452-.778.679-1.68.679-2.707 0-1.026-.227-1.929-.679-2.706a4.278 4.278 0 0 0-1.783-1.774c-.735-.435-1.584-.653-2.546-.653-.962 0-1.825.218-2.589.653a4.545 4.545 0 0 0-1.825 1.774c-.424.777-.637 1.68-.637 2.706 0 1.027.213 1.93.637 2.707a4.88 4.88 0 0 0 1.825 1.82c.764.435 1.627.653 2.589.653ZM174.749 43.353l-9.634-32.665h8.658l8.106 28.279h-4.371l8.53-28.28h7.725l8.063 28.28h-4.201l8.36-28.28h8.022l-9.634 32.666h-8.998L188.5 19.321h2.419l-7.172 24.032h-8.998ZM226.989 43.773c-2.716 0-5.092-.56-7.13-1.68-2.008-1.151-3.579-2.706-4.71-4.666-1.104-1.991-1.656-4.247-1.656-6.767 0-2.52.538-4.76 1.613-6.72 1.104-1.99 2.617-3.53 4.541-4.62 1.924-1.12 4.089-1.68 6.494-1.68 2.263 0 4.329.514 6.196 1.54 1.867.996 3.353 2.474 4.456 4.434 1.104 1.96 1.655 4.34 1.655 7.14 0 .31-.014.668-.042 1.073-.028.404-.057.778-.085 1.12h-18.207V28.28h13.921l-3.056 1.307c.028-1.151-.17-2.147-.594-2.987-.396-.84-.962-1.493-1.698-1.96-.707-.466-1.542-.7-2.504-.7s-1.811.234-2.546.7c-.708.467-1.259 1.136-1.656 2.007-.396.84-.594 1.836-.594 2.987v1.353c0 1.244.227 2.318.679 3.22a5.149 5.149 0 0 0 2.037 2.1c.878.466 1.924.7 3.141.7 1.132 0 2.094-.171 2.886-.514.821-.373 1.627-.933 2.419-1.68l4.244 4.853a10.965 10.965 0 0 1-4.074 3.08c-1.613.685-3.523 1.027-5.73 1.027ZM242.166 43.353V10.565h8.064v32.788h-8.064ZM255.47 43.353V10.565h8.064v32.788h-8.064Z"/></svg>