<svg xmlns="http://www.w3.org/2000/svg" width="259" height="54" viewBox="0 0 259 54"><path fill="#fff" d="m17.99 5.941-6.993-1.505C9.784 4.175 9.019 2.957 9.3 1.735A2.216 2.216 0 0 1 11.83.032l7.302 1.263.077.024c1.632.516 3.703 1.298 5.16 3.21 1.487 1.952 2.03 5.05 1.686 8.694-.323 3.444-.682 7.408-1.007 11.002l-.015.157c-.299 3.303-.568 6.281-.755 8.238-.181 1.895.132 3.575.885 4.708.67 1.01 1.878 1.477 4.259 1.477h32.976c-1.185 3.8-5.134 4.799-5.134 4.799H29.422c-3.622 0-6.51-1.61-8.096-3.999-1.505-2.266-2.006-4.906-1.767-7.41.11-1.143.245-2.614.397-4.287.104-1.135.215-2.362.33-3.643l.04-.43c.165-1.83.443-3.757.719-5.672.263-1.83.525-3.648.686-5.357.289-3.072-.255-4.473-.802-5.19-.567-.745-1.458-1.2-2.94-1.675ZM32.384 49.602c0 2.429-1.945 4.398-4.344 4.398-2.4 0-4.345-1.97-4.345-4.398 0-2.43 1.945-4.399 4.345-4.399 2.399 0 4.344 1.97 4.344 4.399ZM53.71 49.602c0 2.429-1.945 4.398-4.344 4.398-2.4 0-4.344-1.97-4.344-4.398 0-2.43 1.944-4.399 4.344-4.399 2.399 0 4.344 1.97 4.344 4.399Z"/><path fill="#fff" d="M18.992 19.28c.11 1.806.221 3.611-1.023 4.73-.976.88-2.189.93-3.933 1.002-.804.034-1.721.072-2.78.198 0-.492-.02-1.029-.04-1.58-.076-2.142-.16-4.515.83-5.417 1.417-1.292 2.937-1.244 4.704-1.188.694.022 1.427.045 2.206-.012-.059.72-.012 1.494.036 2.268ZM12.719 35.817c1.244-1.12 1.133-2.925 1.023-4.73-.048-.774-.095-1.548-.036-2.267-.78.056-1.512.033-2.206.01-1.768-.055-3.287-.103-4.705 1.19-.99.901-.905 3.275-.829 5.416.02.552.04 1.089.04 1.58 1.058-.125 1.976-.164 2.78-.197 1.744-.073 2.957-.123 3.933-1.002ZM5.485 25.564c.077 1.232.155 2.463-.718 3.227-.685.599-1.536.633-2.76.683-.563.023-1.207.049-1.95.135 0-.336-.013-.702-.027-1.079-.054-1.46-.113-3.079.581-3.694.995-.881 2.06-.848 3.3-.81.488.015 1.002.03 1.549-.008-.042.49-.009 1.019.025 1.546Z"/><path fill="#0068c8" d="m27.25 32.408 2.172-20.593h33.37c3.95 0 4.41 3.332 4.147 4.998-.658 3.6-2.132 11.756-2.764 15.595-.632 3.838-3.817 4.532-5.331 4.398h-28.04c-3.16 0-3.686-2.932-3.554-4.398Z"/><path fill="#fff" fill-rule="evenodd" d="M39.351 13.997c.545.031.96.504.93 1.055l-.394 6.968c.005 1.327.325 2.342 1.13 3.077.843.77 2.393 1.395 5.223 1.494 2.73.095 4.411-.434 5.531-1.259 1.114-.82 1.813-2.034 2.373-3.625l1.568-6.548a.987.987 0 0 1 1.192-.736 1 1 0 0 1 .727 1.207l-1.592 6.647-.016.048c-.622 1.784-1.5 3.453-3.09 4.624-1.595 1.175-3.764 1.745-6.761 1.64-3.03-.105-5.134-.78-6.478-2.008-1.378-1.258-1.781-2.93-1.781-4.589v-.028l.396-7.026a.992.992 0 0 1 1.042-.941Z" clip-rule="evenodd"/><path fill="#fff" d="M85.235 40.97c-1.99 0-3.909-.269-5.76-.806-1.827-.563-3.319-1.28-4.475-2.15l2.255-5.606c1.087.768 2.336 1.408 3.747 1.92 1.434.486 2.857.73 4.268.73.948 0 1.711-.09 2.29-.27.578-.204.994-.46 1.249-.768.277-.332.416-.716.416-1.152 0-.614-.254-1.1-.763-1.459-.51-.358-1.168-.652-1.978-.883-.81-.23-1.712-.46-2.706-.69a27.228 27.228 0 0 1-2.95-.884 11.811 11.811 0 0 1-2.67-1.382 6.85 6.85 0 0 1-1.978-2.266c-.51-.947-.764-2.137-.764-3.57 0-1.613.394-3.072 1.18-4.378.81-1.305 2.012-2.355 3.608-3.148 1.596-.794 3.585-1.19 5.968-1.19 1.596 0 3.157.204 4.684.614 1.55.384 2.926.96 4.128 1.728l-2.116 5.644c-1.156-.691-2.301-1.203-3.435-1.536-1.133-.358-2.232-.538-3.296-.538-.948 0-1.712.116-2.29.346-.578.205-.994.486-1.249.845a2.07 2.07 0 0 0-.381 1.229c0 .588.243 1.062.728 1.42.51.333 1.168.614 1.978.845.832.205 1.735.422 2.706.653.995.23 1.978.524 2.95.883a9.92 9.92 0 0 1 2.705 1.382c.81.563 1.457 1.318 1.943 2.265.51.922.764 2.087.764 3.494a8.197 8.197 0 0 1-1.215 4.34c-.786 1.305-1.977 2.354-3.573 3.148-1.573.793-3.562 1.19-5.968 1.19ZM111.099 20.334c1.457 0 2.776.332 3.955.998 1.18.64 2.105 1.638 2.776 2.995.694 1.357 1.041 3.11 1.041 5.26v11.387h-6.592V30.779c0-1.485-.278-2.56-.833-3.226-.532-.69-1.284-1.036-2.255-1.036-.694 0-1.33.179-1.909.537-.578.333-1.029.858-1.353 1.575-.323.716-.485 1.65-.485 2.802v9.544h-6.592V13h6.592v13.592l-1.527-1.727c.717-1.51 1.7-2.637 2.949-3.38 1.249-.767 2.66-1.151 4.233-1.151ZM132.657 40.97c-2.059 0-3.886-.46-5.482-1.382a10.139 10.139 0 0 1-3.782-3.801c-.902-1.639-1.353-3.507-1.353-5.606 0-2.1.451-3.955 1.353-5.568.926-1.613 2.186-2.867 3.782-3.763 1.596-.921 3.423-1.382 5.482-1.382s3.886.46 5.482 1.382a9.548 9.548 0 0 1 3.782 3.763c.902 1.613 1.353 3.469 1.353 5.568 0 2.099-.451 3.967-1.353 5.606a9.812 9.812 0 0 1-3.782 3.8c-1.596.922-3.423 1.383-5.482 1.383Zm0-5.798c.763 0 1.434-.192 2.012-.576.602-.384 1.076-.947 1.423-1.69.347-.767.52-1.676.52-2.725 0-1.05-.173-1.933-.52-2.65-.347-.742-.821-1.305-1.423-1.69-.578-.383-1.249-.575-2.012-.575a3.66 3.66 0 0 0-2.012.576c-.579.384-1.053.947-1.423 1.69-.347.716-.52 1.6-.52 2.649 0 1.05.173 1.958.52 2.726.37.742.844 1.305 1.423 1.69a3.66 3.66 0 0 0 2.012.575ZM158.284 40.97a7.51 7.51 0 0 1-4.193-1.263c-1.133-.793-2.001-1.97-2.602-3.532-.578-1.587-.867-3.61-.867-6.067 0-2.483.277-4.505.832-6.066.555-1.588 1.388-2.765 2.498-3.533 1.134-.768 2.545-1.152 4.233-1.152 1.712 0 3.261.448 4.649 1.344 1.411.87 2.521 2.112 3.331 3.724.833 1.588 1.249 3.482 1.249 5.683 0 2.202-.416 4.109-1.249 5.721-.81 1.613-1.92 2.855-3.331 3.725-1.388.87-2.838 1.416-4.55 1.416ZM146.354 48V19.703h6.28v3.532l-.035 6.873.347 6.912V48h-6.592Zm10.443-12.939c.74 0 1.4-.192 1.978-.575.601-.384 1.076-.948 1.422-1.69.371-.742.556-1.638.556-2.688 0-1.05-.185-1.945-.556-2.688-.346-.742-.821-1.305-1.422-1.689-.578-.384-1.238-.576-1.978-.576a3.66 3.66 0 0 0-2.012.576c-.578.384-1.052.947-1.422 1.69-.347.742-.521 1.638-.521 2.687 0 1.05.174 1.946.521 2.688.37.742.844 1.306 1.422 1.69a3.66 3.66 0 0 0 2.012.575ZM175.403 40.974l-7.919-27.952h7.078l6.67 23.883h-3.573l6.93-23.883h6.314l6.636 23.883h-3.435l6.792-23.883h6.557l-7.832 27.953h-7.356l-5.62-20.236h1.977l-5.863 20.235h-7.356ZM218.11 40.97c-2.221 0-4.164-.46-5.829-1.382-1.642-.947-2.926-2.227-3.851-3.84-.902-1.638-1.353-3.494-1.353-5.567 0-2.074.439-3.917 1.318-5.53.902-1.638 2.14-2.905 3.713-3.8 1.572-.922 3.342-1.383 5.308-1.383 1.85 0 3.539.422 5.065 1.267 1.527.82 2.741 2.035 3.643 3.648.903 1.613 1.354 3.57 1.354 5.875 0 .256-.012.55-.035.883-.023.332-.046.64-.07.921h-14.884v-3.84h11.38l-2.498 1.076c.023-.947-.139-1.767-.486-2.458-.323-.691-.786-1.229-1.387-1.613-.579-.383-1.261-.575-2.047-.575-.787 0-1.481.192-2.082.575-.578.384-1.029.935-1.353 1.652-.324.69-.486 1.51-.486 2.457v1.114c0 1.023.185 1.906.555 2.649a4.224 4.224 0 0 0 1.666 1.728c.717.384 1.572.576 2.567.576.925 0 1.712-.141 2.359-.423.671-.307 1.33-.768 1.978-1.382l3.469 3.993a8.977 8.977 0 0 1-3.33 2.535c-1.319.563-2.88.844-4.684.844ZM230.517 40.974V13.022h6.592v27.953h-6.592ZM241.393 40.974V13.022h6.592v27.953h-6.592Z"/><path fill="#0068c8" d="M255 41c-1.123 0-2.07-.38-2.842-1.138-.772-.758-1.158-1.718-1.158-2.88 0-1.209.386-2.169 1.158-2.88C252.93 33.367 253.877 33 255 33s2.07.367 2.842 1.102c.772.711 1.158 1.671 1.158 2.88 0 1.162-.386 2.122-1.158 2.88C257.07 40.621 256.123 41 255 41Z"/></svg>